<svg xmlns="http://www.w3.org/2000/svg" viewBox="0 0 589.16 655.79"><defs><style>.cls-1,.cls-2{fill:#fff;}.cls-2{opacity:0.5;}</style></defs><g id="Layer_2" data-name="Layer 2"><g id="Layer_1-2" data-name="Layer 1"><path class="cls-1" d="M588.23,302.68,306.72,650a15.6,15.6,0,0,1-24.28,0L.93,302.68a4.07,4.07,0,0,1,4.4-6.46l279.6,123.65a30.66,30.66,0,0,0,19.31,0l279.6-123.65A4.07,4.07,0,0,1,588.23,302.68Z"/><path class="cls-2" d="M588.23,6.68,306.72,354a15.6,15.6,0,0,1-24.28,0L.93,6.68A4.07,4.07,0,0,1,5.33.22l279.6,123.65a30.66,30.66,0,0,0,19.31,0L583.84.22A4.07,4.07,0,0,1,588.23,6.68Z"/></g></g></svg>